<svg xmlns="http://www.w3.org/2000/svg" xmlns:xlink="http://www.w3.org/1999/xlink" width="274" zoomAndPan="magnify" viewBox="0 0 205.5 48" height="64" preserveAspectRatio="xMidYMid meet" version="1.0"><defs><g/><clipPath id="abf015887f"><path d="M 1.851562 0 L 43.09375 0 L 43.09375 47.019531 L 1.851562 47.019531 Z M 1.851562 0 " clip-rule="nonzero"/></clipPath><clipPath id="8a269111e4"><path d="M 7.679688 8.753906 L 37.140625 8.753906 L 37.140625 38.214844 L 7.679688 38.214844 Z M 7.679688 8.753906 " clip-rule="nonzero"/></clipPath></defs><g fill="#000000" fill-opacity="1"><g transform="translate(44.218858, 35.108805)"><g><path d="M 6.808594 -11.589844 C 6.808594 -16.003906 9.996094 -18.195312 13.183594 -18.195312 C 15.839844 -18.195312 18.527344 -16.667969 19.292969 -13.582031 L 25.035156 -13.582031 C 24.304688 -19.558594 19.160156 -23.609375 13.183594 -23.609375 C 6.542969 -23.609375 1.164062 -18.429688 1.164062 -11.589844 C 1.164062 -4.75 6.542969 0.332031 13.183594 0.332031 C 19.226562 0.332031 24.207031 -3.6875 25.070312 -9.761719 L 19.324219 -9.761719 C 18.59375 -6.609375 15.90625 -5.015625 13.183594 -5.015625 C 9.996094 -5.015625 6.808594 -7.207031 6.808594 -11.589844 Z M 6.808594 -11.589844 "/></g></g></g><g fill="#000000" fill-opacity="1"><g transform="translate(70.341649, 35.108805)"><g><path d="M 9.5625 -23.507812 L 0.265625 0 L 6.34375 0 L 7.636719 -3.421875 L 15.574219 -3.421875 L 16.867188 0 L 23.277344 0 L 13.613281 -23.507812 Z M 11.621094 -14.144531 L 13.414062 -9.097656 L 13.546875 -8.699219 L 9.695312 -8.699219 L 9.894531 -9.230469 Z M 11.621094 -14.144531 "/></g></g></g><g fill="#000000" fill-opacity="1"><g transform="translate(93.576658, 35.108805)"><g><path d="M 1.660156 -23.242188 L 1.660156 0 L 17.101562 0 L 17.101562 -5.480469 L 7.339844 -5.480469 L 7.339844 -23.242188 Z M 1.660156 -23.242188 "/></g></g></g><g fill="#000000" fill-opacity="1"><g transform="translate(111.865934, 35.108805)"><g><path d="M 14.808594 0 L 14.808594 -5.082031 L 10.957031 -5.082031 L 10.957031 -18.195312 L 14.808594 -18.195312 L 14.808594 -23.375 L 1.429688 -23.375 L 1.429688 -18.195312 L 5.28125 -18.195312 L 5.28125 -5.082031 L 1.429688 -5.082031 L 1.429688 0 Z M 14.808594 0 "/></g></g></g><g fill="#000000" fill-opacity="1"><g transform="translate(127.931288, 35.108805)"><g><path d="M 10.859375 -23.242188 L 1.628906 -23.242188 L 1.628906 0 L 10.859375 0 C 18.527344 0 22.378906 -5.777344 22.378906 -11.589844 C 22.378906 -17.398438 18.527344 -23.242188 10.859375 -23.242188 Z M 10.859375 -5.414062 L 7.273438 -5.414062 L 7.273438 -17.863281 L 10.859375 -17.863281 C 14.777344 -17.863281 16.769531 -14.644531 16.769531 -11.589844 C 16.769531 -8.535156 14.777344 -5.414062 10.859375 -5.414062 Z M 10.859375 -5.414062 "/></g></g></g><g fill="#000000" fill-opacity="1"><g transform="translate(151.299071, 35.108805)"><g><path d="M 1.695312 -11.589844 C 1.695312 -4.75 7.074219 0.332031 13.714844 0.332031 C 20.355469 0.332031 25.765625 -4.847656 25.765625 -11.589844 C 25.765625 -18.429688 20.355469 -23.609375 13.714844 -23.609375 C 7.074219 -23.609375 1.695312 -18.429688 1.695312 -11.589844 Z M 7.339844 -11.589844 C 7.339844 -16.003906 10.527344 -18.164062 13.714844 -18.164062 C 16.902344 -18.164062 20.054688 -15.972656 20.054688 -11.589844 C 20.054688 -7.238281 16.835938 -5.046875 13.648438 -5.046875 C 10.460938 -5.046875 7.339844 -7.207031 7.339844 -11.589844 Z M 7.339844 -11.589844 "/></g></g></g><g fill="#000000" fill-opacity="1"><g transform="translate(178.749582, 35.108805)"><g><path d="M 10.691406 -23.441406 L 1.660156 -23.441406 L 1.660156 0 L 7.304688 0 L 7.304688 -7.871094 L 8.234375 -7.871094 L 13.082031 0 L 19.125 0 L 19.125 -1.0625 L 14.144531 -8.433594 C 17.199219 -9.894531 18.695312 -12.882812 18.695312 -15.707031 C 18.695312 -19.558594 16.003906 -23.441406 10.691406 -23.441406 Z M 10.558594 -13.015625 L 7.304688 -13.015625 L 7.304688 -17.996094 L 10.558594 -17.996094 C 12.285156 -17.996094 13.148438 -16.703125 13.148438 -15.472656 C 13.148438 -14.277344 12.253906 -13.015625 10.558594 -13.015625 Z M 10.558594 -13.015625 "/></g></g></g><g clip-path="url(#abf015887f)"><path fill="#ecc94b" d="M 4.058594 0.00390625 L 40.886719 0.00390625 C 42.105469 0.00390625 43.09375 0.992188 43.09375 2.214844 L 43.09375 44.921875 C 43.09375 46.140625 42.105469 47.132812 40.886719 47.132812 L 4.058594 47.132812 C 2.839844 47.132812 1.851562 46.140625 1.851562 44.921875 L 1.851562 2.214844 C 1.851562 0.992188 2.839844 0.00390625 4.058594 0.00390625 " fill-opacity="1" fill-rule="nonzero"/></g><path fill="#dfeffa" d="M 27.824219 23.429688 L 27.800781 19.011719 C 27.773438 13.585938 23.351562 9.21875 17.929688 9.246094 C 12.503906 9.273438 8.132812 13.695312 8.164062 19.117188 L 8.222656 30.410156 C 8.230469 31.738281 9.347656 32.859375 10.691406 32.851562 C 11.628906 32.847656 12.4375 32.316406 12.847656 31.546875 C 12.976562 31.304688 13.304688 31.300781 13.4375 31.539062 C 13.859375 32.304688 14.679688 32.832031 15.601562 32.828125 C 16.535156 32.820312 17.34375 32.296875 17.753906 31.527344 C 17.882812 31.285156 18.210938 31.285156 18.34375 31.523438 C 18.53125 31.871094 18.851562 32.214844 19.199219 32.429688 L 27.824219 23.429688 " fill-opacity="1" fill-rule="nonzero"/><path fill="#718b98" d="M 16.519531 17.59375 C 16.519531 18.949219 15.640625 20.046875 14.554688 20.046875 C 13.46875 20.046875 12.589844 18.949219 12.589844 17.59375 C 12.589844 16.238281 13.46875 15.136719 14.554688 15.136719 C 15.640625 15.136719 16.519531 16.238281 16.519531 17.59375 " fill-opacity="1" fill-rule="nonzero"/><path fill="#718b98" d="M 23.394531 17.59375 C 23.394531 18.949219 22.515625 20.046875 21.429688 20.046875 C 20.34375 20.046875 19.464844 18.949219 19.464844 17.59375 C 19.464844 16.238281 20.34375 15.136719 21.429688 15.136719 C 22.515625 15.136719 23.394531 16.238281 23.394531 17.59375 " fill-opacity="1" fill-rule="nonzero"/><path fill="#718b98" d="M 16.027344 25.449219 L 16.027344 23.484375 C 16.027344 22.398438 16.90625 21.519531 17.992188 21.519531 C 18.53125 21.519531 19.023438 21.742188 19.382812 22.09375 C 19.734375 22.453125 19.957031 22.945312 19.957031 23.484375 L 19.957031 25.449219 L 16.027344 25.449219 " fill-opacity="1" fill-rule="nonzero"/><path fill="#9d3757" d="M 19.957031 25.449219 C 19.957031 26.535156 19.078125 27.414062 17.992188 27.414062 C 16.90625 27.414062 16.027344 26.535156 16.027344 25.449219 C 16.027344 25.449219 16.519531 24.957031 17.992188 24.957031 C 19.464844 24.957031 19.957031 25.449219 19.957031 25.449219 " fill-opacity="1" fill-rule="nonzero"/><path fill="#b07e4c" d="M 24.445312 36.226562 C 24.308594 36.300781 24.167969 36.351562 24.015625 36.394531 L 18.796875 37.703125 C 18.320312 37.816406 17.898438 37.394531 18.011719 36.917969 L 19.320312 31.699219 C 19.363281 31.546875 19.414062 31.40625 19.488281 31.269531 L 22.410156 33.304688 L 24.445312 36.226562 " fill-opacity="1" fill-rule="nonzero"/><path fill="#d7c74a" d="M 34.617188 26.15625 L 24.847656 35.921875 C 24.726562 36.042969 24.589844 36.148438 24.445312 36.226562 L 19.488281 31.269531 C 19.566406 31.125 19.671875 30.988281 19.792969 30.867188 L 29.566406 21.105469 L 30.265625 21.03125 L 34.6875 25.449219 L 34.617188 26.15625 " fill-opacity="1" fill-rule="nonzero"/><path fill="#b8ab41" d="M 22.816406 34.585938 L 21.128906 32.898438 L 31.242188 22.785156 L 32.929688 24.472656 L 22.816406 34.585938 " fill-opacity="1" fill-rule="nonzero"/><path fill="#cb456a" d="M 36.296875 24.472656 L 34.617188 26.15625 L 29.566406 21.105469 L 31.242188 19.417969 C 31.710938 18.949219 32.464844 18.949219 32.933594 19.417969 L 36.296875 22.78125 C 36.765625 23.25 36.765625 24.003906 36.296875 24.472656 " fill-opacity="1" fill-rule="nonzero"/><path fill="#2b2c2d" d="M 14.554688 19.554688 C 13.742188 19.554688 13.082031 18.675781 13.082031 17.59375 C 13.082031 16.507812 13.742188 15.628906 14.554688 15.628906 C 15.367188 15.628906 16.027344 16.507812 16.027344 17.59375 C 16.027344 18.675781 15.367188 19.554688 14.554688 19.554688 Z M 17.011719 17.59375 C 17.011719 15.96875 15.910156 14.644531 14.554688 14.644531 C 13.203125 14.644531 12.101562 15.96875 12.101562 17.59375 C 12.101562 19.21875 13.203125 20.539062 14.554688 20.539062 C 15.910156 20.539062 17.011719 19.21875 17.011719 17.59375 " fill-opacity="1" fill-rule="nonzero"/><path fill="#2b2c2d" d="M 19.957031 17.59375 C 19.957031 16.507812 20.617188 15.628906 21.429688 15.628906 C 22.242188 15.628906 22.902344 16.507812 22.902344 17.59375 C 22.902344 18.675781 22.242188 19.554688 21.429688 19.554688 C 20.617188 19.554688 19.957031 18.675781 19.957031 17.59375 Z M 23.882812 17.59375 C 23.882812 15.96875 22.78125 14.644531 21.429688 14.644531 C 20.074219 14.644531 18.972656 15.96875 18.972656 17.59375 C 18.972656 19.21875 20.074219 20.539062 21.429688 20.539062 C 22.78125 20.539062 23.882812 19.21875 23.882812 17.59375 " fill-opacity="1" fill-rule="nonzero"/><path fill="#2b2c2d" d="M 17.992188 22.011719 C 18.804688 22.011719 19.464844 22.671875 19.464844 23.484375 L 19.464844 24.660156 C 19.109375 24.550781 18.632812 24.464844 17.992188 24.464844 C 17.351562 24.464844 16.875 24.550781 16.519531 24.660156 L 16.519531 23.484375 C 16.519531 22.671875 17.179688 22.011719 17.992188 22.011719 Z M 17.992188 26.921875 C 17.265625 26.921875 16.664062 26.390625 16.542969 25.703125 C 16.769531 25.597656 17.21875 25.449219 17.992188 25.449219 C 18.773438 25.449219 19.222656 25.597656 19.441406 25.703125 C 19.320312 26.390625 18.71875 26.921875 17.992188 26.921875 Z M 17.992188 27.902344 C 19.347656 27.902344 20.445312 26.800781 20.445312 25.449219 L 20.445312 23.484375 C 20.445312 22.128906 19.347656 21.03125 17.992188 21.03125 C 16.636719 21.03125 15.539062 22.128906 15.539062 23.484375 L 15.539062 25.449219 C 15.539062 26.800781 16.636719 27.902344 17.992188 27.902344 " fill-opacity="1" fill-rule="nonzero"/><g clip-path="url(#8a269111e4)"><path fill="#2b2c2d" d="M 35.953125 24.121094 C 35.949219 24.121094 35.949219 24.121094 35.949219 24.125 L 34.613281 25.460938 L 30.253906 21.101562 L 31.59375 19.761719 C 31.722656 19.632812 31.902344 19.554688 32.089844 19.554688 C 32.273438 19.554688 32.453125 19.632812 32.585938 19.765625 L 35.953125 23.132812 C 36.082031 23.265625 36.160156 23.441406 36.160156 23.625 C 36.160156 23.8125 36.082031 23.992188 35.953125 24.121094 Z M 24.492188 35.582031 L 23.503906 34.59375 L 32.929688 25.164062 L 33.917969 26.15625 Z M 18.683594 37.226562 C 18.605469 37.242188 18.554688 37.207031 18.527344 37.1875 C 18.507812 37.160156 18.46875 37.109375 18.488281 37.039062 L 19.707031 32.183594 L 23.53125 36.011719 Z M 21.824219 32.898438 L 31.242188 23.480469 L 32.234375 24.472656 L 22.816406 33.890625 Z M 29.558594 21.796875 L 30.550781 22.785156 L 21.121094 32.210938 L 20.132812 31.226562 C 20.136719 31.222656 20.136719 31.21875 20.140625 31.214844 Z M 33.28125 19.074219 C 32.644531 18.429688 31.53125 18.433594 30.894531 19.070312 L 19.453125 30.515625 C 19.171875 30.78125 18.972656 31.132812 18.863281 31.519531 C 18.8125 31.445312 18.761719 31.367188 18.71875 31.292969 C 18.574219 31.023438 18.296875 30.855469 17.992188 30.855469 C 17.691406 30.855469 17.410156 31.023438 17.265625 31.292969 C 16.921875 31.925781 16.257812 32.320312 15.539062 32.320312 C 14.824219 32.320312 14.164062 31.921875 13.8125 31.28125 C 13.664062 31.011719 13.386719 30.84375 13.085938 30.84375 C 12.78125 30.84375 12.503906 31.015625 12.359375 31.285156 C 12.015625 31.925781 11.351562 32.320312 10.628906 32.320312 C 9.5625 32.320312 8.664062 31.421875 8.664062 30.359375 L 8.664062 19.066406 C 8.664062 13.921875 12.847656 9.738281 17.992188 9.738281 C 23.136719 9.738281 27.320312 13.921875 27.320312 19.066406 L 27.320312 20.539062 C 27.320312 20.808594 27.542969 21.03125 27.8125 21.03125 C 28.082031 21.03125 28.304688 20.808594 28.304688 20.539062 L 28.304688 19.066406 C 28.304688 13.378906 23.675781 8.753906 17.992188 8.753906 C 12.308594 8.753906 7.679688 13.378906 7.679688 19.066406 L 7.679688 30.359375 C 7.679688 31.957031 9.03125 33.304688 10.628906 33.304688 C 11.625 33.304688 12.546875 32.800781 13.089844 31.980469 C 13.636719 32.800781 14.554688 33.304688 15.539062 33.304688 C 16.53125 33.304688 17.449219 32.804688 17.992188 31.988281 C 18.152344 32.226562 18.359375 32.449219 18.582031 32.632812 L 17.535156 36.804688 C 17.441406 37.195312 17.554688 37.597656 17.835938 37.878906 C 18.050781 38.097656 18.339844 38.210938 18.640625 38.210938 C 18.730469 38.210938 18.824219 38.203125 18.917969 38.179688 L 24.136719 36.871094 C 24.550781 36.765625 24.917969 36.554688 25.191406 36.269531 L 36.640625 24.820312 C 36.964844 24.5 37.140625 24.078125 37.140625 23.625 C 37.140625 23.175781 36.964844 22.75 36.644531 22.433594 L 33.28125 19.074219 " fill-opacity="1" fill-rule="nonzero"/></g></svg>